<svg width="1461" height="401" viewBox="0 0 1461 401" fill="none" xmlns="http://www.w3.org/2000/svg">
<path d="M95.8083 400.333C65.496 400.333 43.8445 392.214 28.6884 377.058C7.57805 355.949 0 318.06 0 251.483V149.183C0 78.8175 8.66063 44.1761 28.6884 24.149C44.3858 8.45211 67.1199 0.333008 94.7257 0.333008C122.873 0.333008 146.689 8.99338 161.846 23.6077C179.708 40.9284 189.993 70.6984 189.993 133.486V135.651H117.46V132.403C117.46 86.9365 117.46 66.3682 96.8909 66.3682C76.3219 66.3682 74.698 86.3953 74.698 134.027V266.639C74.698 310.482 74.698 334.298 96.8909 334.298C118.542 334.298 118.542 311.564 118.542 251.483V248.236H191.075V250.401C191.075 326.72 180.249 357.573 161.304 377.058C146.148 392.755 125.038 400.333 95.8083 400.333Z" fill="#1E1E1E"/>
<path d="M289.349 70.1571V170.834H295.303C322.909 170.834 329.946 151.348 329.946 121.578V119.954C329.946 91.808 322.909 70.1571 295.844 70.1571H289.349ZM294.762 237.951H289.349V354.325L289.89 393.838H215.192L215.734 354.325V46.3411L215.192 6.82828H298.01C380.827 6.82828 404.102 54.4602 404.102 112.376V113.459C404.102 181.659 380.286 196.815 352.139 205.475V208.181C374.331 214.135 402.478 228.75 403.561 292.62C404.102 335.38 404.644 357.031 412.222 385.719V393.838H339.148C329.946 364.068 329.404 339.169 328.322 280.712C327.781 255.272 316.955 237.951 294.762 237.951Z" fill="#1E1E1E"/>
<path d="M572.025 232.539H509.776V327.261H588.805V393.838H435.62L436.161 354.325V46.3411L435.62 6.82828H587.181V72.3222H509.776V158.926H572.025V232.539Z" fill="#1E1E1E"/>
<path d="M672.798 338.628L663.054 393.838H592.687L676.045 6.82828H733.963L818.405 393.838H743.707L733.963 338.628H672.798ZM696.614 202.227L684.165 274.217H723.138L711.229 202.227C708.523 186.531 706.358 165.962 704.734 155.137H703.11C701.486 165.962 699.321 186.531 696.614 202.227Z" fill="#1E1E1E"/>
<path d="M971.277 72.3222H919.854V354.325L920.395 393.838H845.697L846.239 354.325V72.3222H793.734V6.82828H971.277V72.3222Z" fill="#1E1E1E"/>
<path d="M992.768 6.82828H1067.47L1066.92 46.3411V354.325L1067.47 393.838H992.768L993.309 354.325V46.3411L992.768 6.82828Z" fill="#1E1E1E"/>
<path d="M1157.97 393.838L1084.35 6.82828H1156.34L1182.32 176.788C1185.03 192.485 1187.2 213.053 1188.82 223.878H1190.44C1192.07 213.053 1194.23 192.485 1196.94 176.788L1223.46 6.82828H1291.12L1215.88 393.838H1157.97Z" fill="#1E1E1E"/>
<path d="M1444.22 232.539H1381.97V327.261H1461V393.838H1307.82L1308.36 354.325V46.3411L1307.82 6.82828H1459.38V72.3222H1381.97V158.926H1444.22V232.539Z" fill="#1E1E1E"/>
</svg>
