<svg width="538" height="400" viewBox="0 0 538 400" fill="none" xmlns="http://www.w3.org/2000/svg">
<path d="M136.296 232.119H74.2408V326.586H153.024V392.982H0.313843L0.853455 353.576V46.4238L0.313843 7.01755H151.405V72.3347H74.2408V158.704H136.296V232.119Z" fill="white"/>
<path d="M165.528 278.543H238.376C238.376 315.789 245.93 331.444 262.658 331.444C273.99 331.444 282.624 323.887 282.624 300.135C282.624 279.082 276.149 256.95 251.326 238.057L226.504 219.163C186.573 188.934 168.226 157.085 168.226 107.422C168.226 37.7868 206.539 0 264.817 0C320.937 0 354.932 32.3887 353.313 118.219H282.624C282.624 80.9717 275.609 68.556 262.119 68.556C248.089 68.556 239.995 80.9717 239.995 100.945C239.995 124.157 250.787 140.891 271.292 156.005L298.812 176.518C330.65 200.27 355.472 227.26 355.472 287.719C355.472 363.293 317.159 400 259.421 400C202.222 400 163.909 364.372 165.528 278.543Z" fill="white"/>
<path d="M538 72.3347H486.737V353.576L487.276 392.982H412.81L413.349 353.576V72.3347H361.007V7.01755H538V72.3347Z" fill="white"/>
</svg>
