<svg width="1031" height="441" viewBox="0 0 1031 441" fill="none" xmlns="http://www.w3.org/2000/svg">
<path d="M172.659 415.326C157.179 430.211 136.341 440.333 103.595 440.333C70.8497 440.333 47.0347 430.211 31.5549 414.731C10.1214 393.296 0 355.786 0 276.598V164.068C0 90.8337 8.33526 49.7511 31.5549 26.5306C45.8439 12.241 68.4682 0.333008 104.786 0.333008C137.532 0.333008 161.347 9.85941 177.422 26.5306C197.665 44.988 208.977 74.7579 208.977 146.801V149.183H129.197V145.61C129.197 94.4061 129.197 72.9717 106.572 72.9717C82.1619 72.9717 82.1619 97.9785 82.1619 147.397V293.269C82.1619 345.069 83.948 367.694 106.572 367.694C130.387 367.694 130.387 343.878 130.387 306.368V279.575H103V211.104H210.168V433.188H205.405L173.85 415.326H172.659Z" fill="white"/>
<path d="M396.613 255.759H328.145V359.954H415.07V433.188H246.579L247.174 389.724V50.942L246.579 7.47781H413.284V79.5211H328.145V174.785H396.613V255.759Z" fill="white"/>
<path d="M622.959 79.5211H566.398V389.724L566.993 433.188H484.831L485.427 389.724V79.5211H427.675V7.47781H622.959V79.5211Z" fill="white"/>
<path d="M701.25 7.47781H783.412L782.817 50.942V389.724L783.412 433.188H701.25L701.846 389.724V50.942L701.25 7.47781Z" fill="white"/>
<path d="M823.93 433.188L824.526 389.724V50.942L823.93 7.47781H876.919L935.266 150.374C945.387 173.594 945.982 177.762 952.532 194.433H954.913C954.318 180.144 953.722 159.305 953.722 144.42V50.942L952.532 7.47781H1030.53L1029.34 50.942V389.724L1030.53 433.188H979.324L915.618 281.361C909.665 268.263 903.115 249.21 900.734 243.851H898.352C899.543 257.545 900.139 278.384 900.139 293.865V389.724L900.734 433.188H823.93Z" fill="white"/>
</svg>
