<svg width="532" height="386" viewBox="0 0 532 386" fill="none" xmlns="http://www.w3.org/2000/svg">
<path d="M152.171 385.965H0L0.539613 346.559V39.4062L0 0H74.4666L73.9269 39.4062V319.568H152.171V385.965Z" fill="white"/>
<path d="M234.335 330.904L224.622 385.965H154.473L237.573 0H295.312L379.491 385.965H305.025L295.312 330.904H234.335ZM258.078 194.872L245.667 266.667H284.519L272.648 194.872C269.95 179.217 267.791 158.704 266.172 147.908H264.554C262.935 158.704 260.776 179.217 258.078 194.872Z" fill="white"/>
<path d="M531.89 65.3171H480.626V346.559L481.166 385.965H406.699L407.239 346.559V65.3171H354.897V0H531.89V65.3171Z" fill="white"/>
</svg>
