<svg width="1612" height="400" viewBox="0 0 1612 400" fill="none" xmlns="http://www.w3.org/2000/svg">
<path d="M0 392.982L0.539976 353.576V46.4238L0 7.01755H92.3358C175.492 7.01755 187.911 61.5385 187.911 129.555V130.634C187.911 199.19 172.792 253.171 92.3358 253.171H73.9767V353.576L74.5166 392.982H0ZM73.9767 188.394H77.7565C112.315 188.394 114.475 160.324 114.475 131.174V129.015C114.475 92.3077 107.995 71.7949 77.7565 71.7949H73.9767V188.394Z" fill="white"/>
<path d="M281.213 70.1754V170.58H287.153C314.692 170.58 321.712 151.147 321.712 121.457V119.838C321.712 91.7679 314.692 70.1754 287.693 70.1754H281.213ZM286.613 237.517H281.213V353.576L281.753 392.982H207.237L207.777 353.576V46.4238L207.237 7.01755H289.853C372.469 7.01755 395.688 54.5209 395.688 112.281V113.36C395.688 181.377 371.929 196.491 343.851 205.128V207.827C365.99 213.765 394.068 228.34 395.148 292.038C395.688 334.683 396.228 356.275 403.788 384.885V392.982H330.891C321.712 363.293 321.172 338.462 320.092 280.162C319.552 254.791 308.752 237.517 286.613 237.517Z" fill="white"/>
<path d="M522.165 399.46C491.386 399.46 467.627 391.363 453.588 376.248C434.689 356.275 424.969 328.745 424.969 251.012V148.988C424.969 71.2551 434.689 43.7247 453.588 23.7517C467.627 9.1768 491.386 0.539804 522.165 0.539804C553.483 0.539804 576.702 9.1768 590.742 23.7517C609.641 44.2645 619.9 71.2551 619.9 148.988V251.012C619.9 328.745 610.181 356.275 590.742 376.248C576.702 391.363 553.483 399.46 522.165 399.46ZM499.486 133.873V266.127C499.486 311.471 500.566 333.603 522.165 333.603C542.684 333.603 544.844 311.471 544.844 266.127V133.873C544.844 88.529 542.684 66.3968 522.165 66.3968C500.566 66.3968 499.486 88.529 499.486 133.873Z" fill="white"/>
<path d="M751.135 7.01755H825.652L825.112 46.4238V296.896C825.112 362.753 791.634 399.46 736.016 399.46C676.619 399.46 642.06 362.753 642.06 296.896V271.525L641.521 232.119H713.337L712.797 271.525V299.055C712.797 321.188 717.657 333.603 733.316 333.603C747.356 333.603 751.135 321.188 751.135 299.055V7.01755Z" fill="white"/>
<path d="M993.496 232.119H931.399V326.586H1010.24V392.982H857.422L857.962 353.576V46.4238L857.422 7.01755H1008.62V72.3347H931.399V158.704H993.496V232.119Z" fill="white"/>
<path d="M1126.96 399.46C1096.72 399.46 1075.12 391.363 1060.01 376.248C1038.95 355.196 1031.39 317.409 1031.39 251.012V148.988C1031.39 78.8124 1040.03 44.2645 1060.01 24.2915C1075.67 8.63699 1098.34 0.539804 1125.88 0.539804C1153.96 0.539804 1177.72 9.1768 1192.84 23.7517C1210.66 41.0257 1220.92 70.7153 1220.92 133.333V135.493H1148.56V132.254C1148.56 86.9096 1148.56 66.3968 1128.04 66.3968C1107.52 66.3968 1105.9 86.3698 1105.9 133.873V266.127C1105.9 309.852 1105.9 333.603 1128.04 333.603C1149.64 333.603 1149.64 310.931 1149.64 251.012V247.773H1222V249.933C1222 326.046 1211.2 356.815 1192.3 376.248C1177.18 391.903 1156.12 399.46 1126.96 399.46Z" fill="white"/>
<path d="M1411.29 72.3347H1359.99V353.576L1360.53 392.982H1286.02L1286.56 353.576V72.3347H1234.18V7.01755H1411.29V72.3347Z" fill="white"/>
<path d="M1421.93 278.543H1494.83C1494.83 315.789 1502.39 331.444 1519.12 331.444C1530.46 331.444 1539.1 323.887 1539.1 300.135C1539.1 279.082 1532.62 256.95 1507.78 238.057L1482.95 219.163C1442.99 188.934 1424.63 157.085 1424.63 107.422C1424.63 37.7868 1462.97 0 1521.28 0C1577.44 0 1611.46 32.3887 1609.84 118.219H1539.1C1539.1 80.9717 1532.08 68.556 1518.58 68.556C1504.54 68.556 1496.45 80.9717 1496.45 100.945C1496.45 124.157 1507.24 140.891 1527.76 156.005L1555.3 176.518C1587.16 200.27 1612 227.26 1612 287.719C1612 363.293 1573.66 400 1515.88 400C1458.65 400 1420.31 364.372 1421.93 278.543Z" fill="white"/>
</svg>
