<svg width="1341" height="401" viewBox="0 0 1341 401" fill="none" xmlns="http://www.w3.org/2000/svg">
<path d="M0 393.315L0.539701 353.909V46.7568L0 7.35056H92.2888C175.403 7.35056 187.816 61.8715 187.816 129.888V130.967C187.816 199.523 172.704 253.504 92.2888 253.504H73.939V353.909L74.4787 393.315H0ZM73.939 188.727H77.7169C112.258 188.727 114.417 160.657 114.417 131.507V129.348C114.417 92.6407 107.94 72.1279 77.7169 72.1279H73.939V188.727Z" fill="#1E1E1E"/>
<path d="M320.468 7.35056H394.947L394.407 46.7568V297.229C394.407 363.086 358.787 399.793 299.96 399.793C240.593 399.793 206.052 363.086 206.052 297.229V46.7568L205.512 7.35056H279.991L279.451 46.7568V299.388C279.451 321.521 284.308 333.936 299.96 333.936C315.611 333.936 320.468 321.521 320.468 299.388V7.35056Z" fill="#1E1E1E"/>
<path d="M500.851 70.5084V170.913H506.787C534.312 170.913 541.328 151.48 541.328 121.79V120.171C541.328 92.1009 534.312 70.5084 507.327 70.5084H500.851ZM506.248 237.85H500.851V353.909L501.39 393.315H426.912L427.451 353.909V46.7568L426.912 7.35056H509.486C592.06 7.35056 615.267 54.8539 615.267 112.614V113.693C615.267 181.71 591.52 196.824 563.456 205.461V208.16C585.584 214.098 613.648 228.673 614.727 292.371C615.267 335.016 615.807 356.608 623.363 385.218V393.315H550.503C541.328 363.626 540.788 338.795 539.709 280.495C539.169 255.124 528.375 237.85 506.248 237.85Z" fill="#1E1E1E"/>
<path d="M635.898 278.876H708.758C708.758 316.122 716.313 331.777 733.044 331.777C744.378 331.777 753.013 324.22 753.013 300.468C753.013 279.415 746.537 257.283 721.71 238.39L696.884 219.496C656.946 189.267 638.596 157.418 638.596 107.755C638.596 38.1198 676.915 0.333008 735.203 0.333008C791.332 0.333008 825.333 32.7217 823.714 118.552H753.013C753.013 81.3047 745.997 68.889 732.504 68.889C718.472 68.889 710.377 81.3047 710.377 101.278C710.377 124.49 721.171 141.224 741.679 156.338L769.204 176.851C801.046 200.603 825.873 227.593 825.873 288.052C825.873 363.626 787.554 400.333 729.806 400.333C672.598 400.333 634.279 364.705 635.898 278.876Z" fill="#1E1E1E"/>
<path d="M961.363 7.35056H1035.84L1035.3 46.7568V297.229C1035.3 363.086 999.682 399.793 940.854 399.793C881.487 399.793 846.946 363.086 846.946 297.229V46.7568L846.406 7.35056H920.885L920.345 46.7568V299.388C920.345 321.521 925.203 333.936 940.854 333.936C956.505 333.936 961.363 321.521 961.363 299.388V7.35056Z" fill="#1E1E1E"/>
<path d="M1067.81 7.35056H1142.28L1141.74 46.7568V353.909L1142.28 393.315H1067.81L1068.35 353.909V46.7568L1067.81 7.35056Z" fill="#1E1E1E"/>
<path d="M1341 72.6677H1289.73V353.909L1290.27 393.315H1215.79L1216.33 353.909V72.6677H1163.98V7.35056H1341V72.6677Z" fill="#1E1E1E"/>
</svg>
