<svg width="1639" height="440" viewBox="0 0 1639 440" fill="none" xmlns="http://www.w3.org/2000/svg">
<path d="M0.0543566 306.397H80.2143C80.2143 347.368 88.5272 364.588 106.934 364.588C119.404 364.588 128.904 356.275 128.904 330.148C128.904 306.991 121.779 282.645 94.4649 261.862L67.1512 241.08C23.2117 207.827 3.02324 172.794 3.02324 118.165C3.02324 41.5655 45.1814 0 109.309 0C171.062 0 208.47 35.6275 206.689 130.041H128.904C128.904 89.0688 121.185 75.4116 106.34 75.4116C90.9023 75.4116 81.9956 89.0688 81.9956 111.039C81.9956 136.572 93.8712 154.98 116.435 171.606L146.717 194.17C181.75 220.297 209.064 249.987 209.064 316.491C209.064 399.622 166.906 440 103.372 440C40.4312 440 -1.72698 400.81 0.0543566 306.397Z" fill="#1E1E1E"/>
<path d="M383.068 255.331H314.784V359.244H401.476V432.281H233.437L234.03 388.934V51.0661L233.437 7.7193H399.694V79.5682H314.784V174.575H383.068V255.331Z" fill="#1E1E1E"/>
<path d="M508.457 77.193V187.638H514.989C545.272 187.638 552.991 166.262 552.991 133.603V131.822C552.991 100.945 545.272 77.193 515.583 77.193H508.457ZM514.395 261.269H508.457V388.934L509.051 432.281H427.11L427.704 388.934V51.0661L427.11 7.7193H517.958C608.806 7.7193 634.338 59.973 634.338 123.509V124.696C634.338 199.514 608.212 216.14 577.336 225.641V228.61C601.68 235.142 632.557 251.174 633.745 321.242C634.338 368.151 634.932 391.903 643.245 423.374V432.281H563.085C552.991 399.622 552.397 372.308 551.209 308.178C550.616 280.27 538.74 261.269 514.395 261.269Z" fill="#1E1E1E"/>
<path d="M731.258 432.281L650.505 7.7193H729.477L757.978 194.17C760.947 211.39 763.322 233.954 765.104 245.83H766.885C768.666 233.954 771.042 211.39 774.01 194.17L803.106 7.7193H877.328L794.793 432.281H731.258Z" fill="#1E1E1E"/>
<path d="M895.637 7.7193H977.579L976.985 51.0661V388.934L977.579 432.281H895.637L896.231 388.934V51.0661L895.637 7.7193Z" fill="#1E1E1E"/>
<path d="M1117.23 439.406C1083.98 439.406 1060.23 430.499 1043.6 413.873C1020.45 390.715 1012.13 349.15 1012.13 276.113V163.887C1012.13 86.6937 1021.63 48.691 1043.6 26.7207C1060.82 9.50069 1085.76 0.593785 1116.04 0.593785C1146.92 0.593785 1173.05 10.0945 1189.67 26.1269C1209.27 45.1282 1220.55 77.7868 1220.55 146.667V149.042H1140.98V145.479C1140.98 95.6005 1140.98 73.0365 1118.42 73.0365C1095.86 73.0365 1094.07 95.0068 1094.07 147.26V292.74C1094.07 340.837 1094.07 366.964 1118.42 366.964C1142.17 366.964 1142.17 342.024 1142.17 276.113V272.551H1221.74V274.926C1221.74 358.65 1209.86 392.497 1189.08 413.873C1172.45 431.093 1149.3 439.406 1117.23 439.406Z" fill="#1E1E1E"/>
<path d="M1397.82 255.331H1329.54V359.244H1416.23V432.281H1248.19L1248.79 388.934V51.0661L1248.19 7.7193H1414.45V79.5682H1329.54V174.575H1397.82V255.331Z" fill="#1E1E1E"/>
<path d="M1429.99 306.397H1510.15C1510.15 347.368 1518.46 364.588 1536.87 364.588C1549.34 364.588 1558.84 356.275 1558.84 330.148C1558.84 306.991 1551.71 282.645 1524.4 261.862L1497.09 241.08C1453.15 207.827 1432.96 172.794 1432.96 118.165C1432.96 41.5655 1475.12 0 1539.25 0C1601 0 1638.41 35.6275 1636.62 130.041H1558.84C1558.84 89.0688 1551.12 75.4116 1536.28 75.4116C1520.84 75.4116 1511.93 89.0688 1511.93 111.039C1511.93 136.572 1523.81 154.98 1546.37 171.606L1576.65 194.17C1611.69 220.297 1639 249.987 1639 316.491C1639 399.622 1596.84 440 1533.31 440C1470.37 440 1428.21 400.81 1429.99 306.397Z" fill="#1E1E1E"/>
</svg>
