<svg width="1143" height="441" viewBox="0 0 1143 441" fill="none" xmlns="http://www.w3.org/2000/svg">
<path d="M195.803 79.5211H139.243V389.724L139.838 433.188H57.6763L58.2716 389.724V79.5211H0.520142V7.47781H195.803V79.5211Z" fill="white"/>
<path d="M314.344 440.333C280.407 440.333 254.211 431.402 238.731 414.731C217.893 392.701 207.176 362.336 207.176 276.598V164.068C207.176 78.3303 217.893 47.965 238.731 25.9352C254.211 9.85941 280.407 0.333008 314.344 0.333008C348.876 0.333008 374.477 9.85941 389.956 25.9352C410.795 48.5604 422.107 78.3303 422.107 164.068V276.598C422.107 362.336 411.39 392.701 389.956 414.731C374.477 431.402 348.876 440.333 314.344 440.333ZM289.338 147.397V293.269C289.338 343.283 290.529 367.694 314.344 367.694C336.968 367.694 339.349 343.283 339.349 293.269V147.397C339.349 97.3831 336.968 72.9717 314.344 72.9717C290.529 72.9717 289.338 97.3831 289.338 147.397Z" fill="white"/>
<path d="M581.691 7.47781H663.853L663.257 50.942V327.207C663.257 399.846 623.962 440.333 559.066 440.333C493.575 440.333 455.471 399.846 455.471 327.207V50.942L454.876 7.47781H537.037L536.442 50.942V329.589C536.442 354 541.801 367.694 559.066 367.694C576.332 367.694 581.691 354 581.691 329.589V7.47781Z" fill="white"/>
<path d="M802.115 440.333C768.774 440.333 744.959 431.402 728.288 414.731C705.069 391.51 696.733 349.832 696.733 276.598V164.068C696.733 86.6659 706.259 48.5604 728.288 26.5306C745.554 9.26402 770.56 0.333008 800.924 0.333008C831.883 0.333008 858.08 9.85941 874.751 25.9352C894.398 44.988 905.71 77.7349 905.71 146.801V149.183H825.93V145.61C825.93 95.5969 825.93 72.9717 803.305 72.9717C780.681 72.9717 778.895 95.0015 778.895 147.397V293.269C778.895 341.497 778.895 367.694 803.305 367.694C827.12 367.694 827.12 342.688 827.12 276.598V273.026H906.901V275.407C906.901 359.359 894.993 393.296 874.155 414.731C857.485 431.997 834.265 440.333 802.115 440.333Z" fill="white"/>
<path d="M1060.84 7.47781H1143L1142.4 50.942V389.724L1143 433.188H1060.84L1061.43 389.724V254.568H1014.99V389.724L1015.59 433.188H933.428L934.023 389.724V50.942L933.428 7.47781H1015.59L1014.99 50.942V172.999H1061.43V50.942L1060.84 7.47781Z" fill="white"/>
</svg>
